<?xml version="1.0" encoding="utf-8"?>
<!-- Generator: Adobe Illustrator 26.0.2, SVG Export Plug-In . SVG Version: 6.00 Build 0)  -->
<svg version="1.1" id="Слой_1" xmlns="http://www.w3.org/2000/svg" xmlns:xlink="http://www.w3.org/1999/xlink" x="0px" y="0px"
	 viewBox="0 0 640 150" style="enable-background:new 0 0 640 150;" xml:space="preserve">
<style type="text/css">
	.st0{fill:#FFFFFF;}
	.st1{fill:#FD1D42;}
</style>
<g>
	<path class="st0" d="M159.6,74.9c0,13-3.5,25.2-9.5,35.6c-6.2,10.8-15.2,19.8-26.1,26.1c-10.5,6-22.7,9.5-35.6,9.5H17l0,0V39.4
		v-8.9l0,0c19.7,0,35.6,15.9,35.6,35.6v44.6l0,0h34.9c20,0,36.7-16.3,36.3-36.3c-0.4-19.3-16.2-35-35.6-35l0,0
		c-19.7,0-35.6-15.9-35.6-35.6l0,0l0,0h35.6c13,0,25.2,3.5,35.6,9.5c10.8,6.2,19.8,15.2,26.1,26.1C156.1,49.8,159.6,62,159.6,74.9z"
		/>
	<path class="st0" d="M467.1,145.1c-19,5.1-38.5-6.1-43.7-25.3l-2.8-10.5c-3.7,0.8-7.5,1.2-11.5,1.2h-17.8v35.6h-35.6V74.8h53.1
		c0.9,0,1.8-0.1,2.6-0.2c8.5-1.2,15.3-8.2,15.6-16.9c0.1-2.1-0.2-4.1-0.8-5.9c-2.3-7.2-9-12.5-17-12.5h-17.8
		c-19.7,0-35.6-15.9-35.6-35.6h53.5c6.2,0,12.3,1.1,17.8,3.1c15.2,5.3,27.2,17.4,32.6,32.6c2,5.5,3.1,11.6,3.1,17.8
		s-1.1,12.3-3.1,17.8c-1.8,5.1-4.4,9.8-7.5,14.1L467.1,145.1z"/>
	<path class="st1" d="M331.1,123.1L261.5,10.8c-5.8-9.5-19.6-9.5-25.4,0l-69.6,112.3c-6.2,10.1,0.9,23.2,12.8,23.2h139.2
		C330.1,146.2,337.3,133.2,331.1,123.1z M271.4,109.3h-46.6c-4,0-6.3-4.4-4.3-7.7L243.8,64c2-3.2,6.5-3.2,8.5,0l23.3,37.6
		C277.7,104.9,275.2,109.3,271.4,109.3z"/>
	<path class="st0" d="M623,3.6v106.9c0,9.8-4,18.7-10.4,25.3c-6.4,6.4-15.3,10.4-25.3,10.4L525,61.6v49c0,9.8-4,18.7-10.4,25.3
		c-6.4,6.4-15.3,10.4-25.3,10.4V39.3c0-19.7,15.9-35.6,35.6-35.6l62.4,84.7v-49C587.4,19.6,603.3,3.6,623,3.6z"/>
</g>
</svg>
